[Header]
FileType HTR
DataType HTRS
FileVersion 1
NumSegments 36
NumFrames 4
DataFrameRate 120
EulerRotationOrder ZYX
CalibrationUnits mm
RotationUnits Degrees
GlobalAxisofGravity Y
BoneLengthAxis Y
ScaleFactor 1.0
[SegmentNames&Hierarchy]
Hips	GLOBAL
Spine	Hips
Spine1	Spine
Spine2	Spine1
Spine3	Spine2
Neck	Spine3
Head	Neck
HeadEnd	Head
RightShoulder	Spine3
RightArm	RightShoulder
RightForeArm	RightArm
RightForeArmRoll	RightForeArm
RightHand	RightForeArmRoll
RightHandEnd	RightHand
R_FingersEnd	RightHandEnd
RightHandThumb1	RightHand
RightHandThumb2	RightHandThumb1
LeftShoulder	Spine3
LeftArm	LeftShoulder
LeftForeArm	LeftArm
LeftForeArmRoll	LeftForeArm
LeftHand	LeftForeArmRoll
LeftHandEnd	LeftHand
L_FingersEnd	LeftHandEnd
LeftHandThumb1	LeftHand
LeftHandThumb2	LeftHandThumb1
RightUpLeg	Hips
RightLeg	RightUpLeg
RightFoot	RightLeg
RightToeBase	RightFoot
RightToeBaseEnd	RightToeBase
LeftUpLeg	Hips
LeftLeg	LeftUpLeg
LeftFoot	LeftLeg
LeftToeBase	LeftFoot
LeftToeBaseEnd	LeftToeBase
[BasePosition]
Hips	0	0	0	0	0	0	1
Spine	0	0	0	-10	-0	0	1
Spine1	0	0	0	5	0	0	1
Spine2	0	0	0	5	0	0	1
Spine3	0	0	0	0	0	0	1
Neck	0	0	0	10	0	0	1
Head	0	0	0	-10	-0	0	1
HeadEnd	0	0	0	0	0	0	1
RightShoulder	0	0	0	-180	-0	-180	1
RightArm	0	0	0	0	0	0	1
RightForeArm	0	0	0	0	0	0	1
RightForeArmRoll	0	0	0	0	0	0	1
RightHand	0	0	0	0	0	0	1
RightHandEnd	0	0	0	-90	-0	0	1
R_FingersEnd	0	0	0	0	0	0	1
RightHandThumb1	0	0	0	170	-0	-15	1
RightHandThumb2	0	0	0	0	0	0	1
LeftShoulder	0	0	0	0	0	0	1
LeftArm	0	0	0	0	0	0	1
LeftForeArm	0	0	0	0	0	0	1
LeftForeArmRoll	0	0	0	0	0	0	1
LeftHand	0	0	0	0	0	0	1
LeftHandEnd	0	0	0	90	0	0	1
L_FingersEnd	0	0	0	0	0	0	1
LeftHandThumb1	0	0	0	170	-0	-15	1
LeftHandThumb2	0	0	0	0	0	0	1
RightUpLeg	0	0	0	-0	90	0	1
RightLeg	0	0	0	0	0	0	1
RightFoot	0	0	0	0	-0	-70	1
RightToeBase	0	0	0	0	-0	-20	1
RightToeBaseEnd	0	0	0	0	0	0	1
LeftUpLeg	0	0	0	-0	90	0	1
LeftLeg	0	0	0	0	0	0	1
LeftFoot	0	0	0	0	-0	-70	1
LeftToeBase	0	0	0	0	-0	-20	1
LeftToeBaseEnd	0	0	0	0	0	0	1
[Hips]
68	-5.748779774	970.7915039	-20.31356812	-88.85458374	0.1210694835	0.1926958263	1.0
69	-5.779621601	970.8117065	-20.40003586	-88.84264374	0.1197786704	0.1924937218	1.0
70	-5.813309669	970.8314209	-20.47864914	-88.83602905	0.1198730916	0.1900504827	1.0
71	-5.851056576	970.8470459	-20.53569412	-88.8322525	0.1208366677	0.1859181076	1.0
[Spine]
68	0	44.87670517	67.31505585	-0.2294573486	0.3641554415	0.07339055091	1.0
69	0	44.87670517	67.31505585	-0.2324934453	0.3630507886	0.07251568139	1.0
70	0	44.87670517	67.31505585	-0.2334062159	0.3611290157	0.07181046158	1.0
71	0	44.87670517	67.31505585	-0.2333104908	0.3583824635	0.07112579048	1.0
[Spine1]
68	0	0	89.75341034	-0.5931761861	0.008776221424	0.0001280858269	1.0
69	0	0	89.75341034	-0.5990225673	0.008880665526	-3.560485129e-005	1.0
70	0	0	89.75341034	-0.6018695831	0.009267482907	-3.65853557e-005	1.0
71	0	0	89.75341034	-0.6034487486	0.009836630896	4.981664461e-005	1.0
[Spine2]
68	0	0	89.75341034	1.38373518	0.4788125455	0.3841637969	1.0
69	0	0	89.75341034	1.390671611	0.4808897972	0.3834657669	1.0
70	0	0	89.75341034	1.396435618	0.4818555713	0.3822261095	1.0
71	0	0	89.75341034	1.402039289	0.4821691513	0.3802792132	1.0
[Spine3]
68	0	0	89.75341034	0.1127936319	-0.4109946489	-0.06179793552	1.0
69	0	0	89.75341034	0.1150997505	-0.4101783037	-0.06291660666	1.0
70	0	0	89.75341034	0.1164679825	-0.410153985	-0.06308083236	1.0
71	0	0	89.75341034	0.1174247637	-0.4106222987	-0.06269735843	1.0
[Neck]
68	0	-33.65752792	235.6027069	-1.190044403	-0.06584355235	-0.1373042464	1.0
69	0	-33.65752792	235.6027069	-1.187058568	-0.06543877721	-0.1345730126	1.0
70	0	-33.65752792	235.6027069	-1.182465672	-0.06716106087	-0.1352315694	1.0
71	0	-33.65752792	235.6027069	-1.177333951	-0.06986332685	-0.1382858753	1.0
[Head]
68	0	0	123.4109421	-0.9900273085	-0.2113306224	-1.004956603	1.0
69	0	0	123.4109421	-0.9853954911	-0.2177168131	-1.001524687	1.0
70	0	0	123.4109421	-0.9798738956	-0.2207489759	-0.9986921549	1.0
71	0	0	123.4109421	-0.9738007784	-0.2220191061	-0.9961076975	1.0
[HeadEnd]
68	0	0	145.2883301	0	0	0	1.0
69	0	0	145.2883301	0	0	0	1.0
70	0	0	145.2883301	0	0	0	1.0
71	0	0	145.2883301	0	0	0	1.0
[RightShoulder]
68	-30.74827576	-51.24713135	166.0407104	-4.405368328	-6.030278206	0.9041671753	1.0
69	-30.74827576	-51.24713135	166.0407104	-4.405427933	-6.038674831	0.9034873247	1.0
70	-30.74827576	-51.24713135	166.0407104	-4.404324532	-6.046154022	0.9053657055	1.0
71	-30.74827576	-51.24713135	166.0407104	-4.402644157	-6.05315876	0.9085469246	1.0
[RightArm]
68	152.7164459	0	0	-24.75391769	-69.41278076	4.245292664	1.0
69	152.7164459	0	0	-24.75348473	-69.41738129	4.233458996	1.0
70	152.7164459	0	0	-24.76070976	-69.42260742	4.233262062	1.0
71	152.7164459	0	0	-24.77095413	-69.42781067	4.238992691	1.0
[RightForeArm]
68	297.8946228	0	0	0	0	-31.27453423	1.0
69	297.8946228	0	0	0	0	-31.27501488	1.0
70	297.8946228	0	0	0	0	-31.27647781	1.0
71	297.8946228	0	0	0	0	-31.27851105	1.0
[RightForeArmRoll]
68	122.9768982	0	0	4.512564182	0	0	1.0
69	122.9768982	0	0	4.594191551	0	0	1.0
70	122.9768982	0	0	4.648421764	0	0	1.0
71	122.9768982	0	0	4.687549114	0	0	1.0
[RightHand]
68	127.1009369	0	0	2.154254798e-005	8.060046196	-3.049478054	1.0
69	127.1009369	0	0	2.823434625e-005	8.079362869	-3.082084894	1.0
70	127.1009369	0	0	2.332702388e-005	8.092453957	-3.104675531	1.0
71	127.1009369	0	0	1.119946683e-005	8.100343704	-3.122604132	1.0
[RightHandEnd]
68	72.05677795	0	0	0	0	0	1.0
69	72.05677795	0	0	0	0	0	1.0
70	72.05677795	0	0	0	0	0	1.0
71	72.05677795	0	0	0	0	0	1.0
[R_FingersEnd]
68	72.05677795	0	0	0	0	0	1.0
69	72.05677795	0	0	0	0	0	1.0
70	72.05677795	0	0	0	0	0	1.0
71	72.05677795	0	0	0	0	0	1.0
[RightHandThumb1]
68	28.82271004	-48.03784943	19.2151413	0	0	0	1.0
69	28.82271004	-48.03784943	19.2151413	0	0	0	1.0
70	28.82271004	-48.03784943	19.2151413	0	0	0	1.0
71	28.82271004	-48.03784943	19.2151413	0	0	0	1.0
[RightHandThumb2]
68	72.05677795	0	0	0	0	0	1.0
69	72.05677795	0	0	0	0	0	1.0
70	72.05677795	0	0	0	0	0	1.0
71	72.05677795	0	0	0	0	0	1.0
[LeftShoulder]
68	30.74827576	-51.24713135	166.0407104	5.353207588	6.031507015	2.981967449	1.0
69	30.74827576	-51.24713135	166.0407104	5.363313198	6.036386013	2.990731001	1.0
70	30.74827576	-51.24713135	166.0407104	5.371107101	6.042531013	2.994623184	1.0
71	30.74827576	-51.24713135	166.0407104	5.378731728	6.050955296	2.995901823	1.0
[LeftArm]
68	152.7164459	0	0	3.666500092	68.72932434	-34.65999603	1.0
69	152.7164459	0	0	3.725054026	68.71317291	-34.65908813	1.0
70	152.7164459	0	0	3.789602518	68.70049286	-34.6439743	1.0
71	152.7164459	0	0	3.86408639	68.68781281	-34.6212616	1.0
[LeftForeArm]
68	297.8946228	0	0	0	0	-19.26708221	1.0
69	297.8946228	0	0	0	0	-19.25570488	1.0
70	297.8946228	0	0	0	0	-19.24483871	1.0
71	297.8946228	0	0	0	0	-19.23298073	1.0
[LeftForeArmRoll]
68	122.9768982	0	0	-4.374797821	0	0	1.0
69	122.9768982	0	0	-4.333733559	0	0	1.0
70	122.9768982	0	0	-4.329642296	0	0	1.0
71	122.9768982	0	0	-4.360948563	0	0	1.0
[LeftHand]
68	127.1009369	0	0	-4.838804307e-005	-20.98275757	1.134702682	1.0
69	127.1009369	0	0	0.0001617357484	-21.05922318	1.141181469	1.0
70	127.1009369	0	0	0.0002342637454	-21.1386795	1.13088131	1.0
71	127.1009369	0	0	0.0002371922455	-21.23532677	1.100769281	1.0
[LeftHandEnd]
68	72.05677795	0	0	0	0	0	1.0
69	72.05677795	0	0	0	0	0	1.0
70	72.05677795	0	0	0	0	0	1.0
71	72.05677795	0	0	0	0	0	1.0
[L_FingersEnd]
68	72.05677795	0	0	0	0	0	1.0
69	72.05677795	0	0	0	0	0	1.0
70	72.05677795	0	0	0	0	0	1.0
71	72.05677795	0	0	0	0	0	1.0
[LeftHandThumb1]
68	28.82271004	-48.03784943	-19.2151413	0	0	0	1.0
69	28.82271004	-48.03784943	-19.2151413	0	0	0	1.0
70	28.82271004	-48.03784943	-19.2151413	0	0	0	1.0
71	28.82271004	-48.03784943	-19.2151413	0	0	0	1.0
[LeftHandThumb2]
68	72.05677795	0	0	0	0	0	1.0
69	72.05677795	0	0	0	0	0	1.0
70	72.05677795	0	0	0	0	0	1.0
71	72.05677795	0	0	0	0	0	1.0
[RightUpLeg]
68	-91.21989441	0	-26.64850616	9.369215012	4.290179253	-0.8769325018	1.0
69	-91.21989441	0	-26.64850616	9.390951157	4.289288521	-0.8978359699	1.0
70	-91.21989441	0	-26.64850616	9.407546997	4.284003735	-0.9099669456	1.0
71	-91.21989441	0	-26.64850616	9.423002243	4.275611877	-0.9180912971	1.0
[RightLeg]
68	402.8824463	0	0	0	0	14.6399498	1.0
69	402.8824463	0	0	0	0	14.65034008	1.0
70	402.8824463	0	0	0	0	14.65671444	1.0
71	402.8824463	0	0	0	0	14.66243362	1.0
[RightFoot]
68	435.9781189	0	0	4.491889	-1.69214201	-14.90828323	1.0
69	435.9781189	0	0	4.496675491	-1.702021599	-14.90704346	1.0
70	435.9781189	0	0	4.500669003	-1.705663323	-14.90574837	1.0
71	435.9781189	0	0	4.50521183	-1.705853701	-14.90466785	1.0
[RightToeBase]
68	183.1846619	0	0	0	0	0.6557229757	1.0
69	183.1846619	0	0	0	0	0.6552471519	1.0
70	183.1846619	0	0	0	0	0.657040894	1.0
71	183.1846619	0	0	0	0	0.6608681679	1.0
[RightToeBaseEnd]
68	73.79586792	0	0	0	0	0	1.0
69	73.79586792	0	0	0	0	0	1.0
70	73.79586792	0	0	0	0	0	1.0
71	73.79586792	0	0	0	0	0	1.0
[LeftUpLeg]
68	91.21989441	0	-26.64850616	0.5809066296	-5.105704308	0.04990172386	1.0
69	91.21989441	0	-26.64850616	0.5943393707	-5.106036663	0.04091425613	1.0
70	91.21989441	0	-26.64850616	0.6084133983	-5.109689713	0.03931040689	1.0
71	91.21989441	0	-26.64850616	0.6232087612	-5.115828991	0.04150032997	1.0
[LeftLeg]
68	402.8824463	0	0	0	0	11.47237587	1.0
69	402.8824463	0	0	0	0	11.45761776	1.0
70	402.8824463	0	0	0	0	11.44132805	1.0
71	402.8824463	0	0	0	0	11.42431641	1.0
[LeftFoot]
68	435.9781189	0	0	-7.863578796	-0.08250615001	-12.71281815	1.0
69	435.9781189	0	0	-7.871587276	-0.09684580564	-12.70497417	1.0
70	435.9781189	0	0	-7.88134861	-0.1106406599	-12.6987381	1.0
71	435.9781189	0	0	-7.893611431	-0.1239862666	-12.69350052	1.0
[LeftToeBase]
68	183.1846619	0	0	0	0	0.8948159218	1.0
69	183.1846619	0	0	0	0	0.8905122876	1.0
70	183.1846619	0	0	0	0	0.891125083	1.0
71	183.1846619	0	0	0	0	0.8947894573	1.0
[LeftToeBaseEnd]
68	73.79586792	0	0	0	0	0	1.0
69	73.79586792	0	0	0	0	0	1.0
70	73.79586792	0	0	0	0	0	1.0
71	73.79586792	0	0	0	0	0	1.0
[EndOfFile]
